<svg width="236" height="66" xmlns="http://www.w3.org/2000/svg" class="font">
 <!---->
 <defs>
  <!---->
  <linearGradient gradientTransform="rotate(25)" id="2d0edc92-6717-4d1d-8b09-bb6dda5b7b52" x1="0%" y1="0%" x2="100%" y2="0%">
   <stop offset="0%" stop-color="#0015D6"/>
   <stop offset="100%" stop-color="#0989FB"/>
  </linearGradient>
 </defs>
 <!---->
 <!---->
 <g>
  <title>Layer 1</title>
  <g id="66e05971-c94d-4610-b791-fdcbc15bed2b" fill="url(#2d0edc92-6717-4d1d-8b09-bb6dda5b7b52)" transform="matrix(4.27102 0 0 4.27102 36.7113 117.07)">
   <path d="m-4.59796,-23.34558l0,7.37l-2.09,0l0,-7.37l2.09,0zm0.19,-2.12l0,0l0,0q0,0.57 -0.37,0.9l0,0l0,0q-0.37,0.33 -0.87,0.33l0,0l0,0q-0.51,0 -0.88,-0.33l0,0l0,0q-0.37,-0.33 -0.37,-0.9l0,0l0,0q0,-0.58 0.37,-0.91l0,0l0,0q0.37,-0.33 0.88,-0.33l0,0l0,0q0.5,0 0.87,0.33l0,0l0,0q0.37,0.33 0.37,0.91zm5.81,9.49l0,-3.91l0,0q0,-1.01 -0.26,-1.43l0,0l0,0q-0.26,-0.42 -0.89,-0.42l0,0l0,0q-0.19,0 -0.4,0.02l0,0l0,0q-0.21,0.03 -0.41,0.05l0,0l0,5.69l-2.08,0l0,-7.11l0,0q0.26,-0.07 0.62,-0.15l0,0l0,0q0.36,-0.08 0.76,-0.14l0,0l0,0q0.39,-0.06 0.81,-0.1l0,0l0,0q0.42,-0.03 0.83,-0.03l0,0l0,0q0.8,0 1.3,0.2l0,0l0,0q0.49,0.2 0.81,0.48l0,0l0,0q0.45,-0.32 1.03,-0.5l0,0l0,0q0.58,-0.18 1.07,-0.18l0,0l0,0q0.89,0 1.45,0.24l0,0l0,0q0.57,0.25 0.91,0.69l0,0l0,0q0.33,0.45 0.46,1.07l0,0l0,0q0.12,0.61 0.12,1.37l0,0l0,4.16l-2.08,0l0,-3.91l0,0q0,-1.01 -0.26,-1.43l0,0l0,0q-0.26,-0.42 -0.89,-0.42l0,0l0,0q-0.17,0 -0.47,0.09l0,0l0,0q-0.3,0.08 -0.5,0.21l0,0l0,0q0.1,0.32 0.13,0.68l0,0l0,0q0.03,0.35 0.03,0.76l0,0l0,4.02l-2.09,0zm7.67,-3.63l0,0l0,0q0,-0.98 0.31,-1.71l0,0l0,0q0.3,-0.74 0.79,-1.23l0,0l0,0q0.49,-0.49 1.12,-0.74l0,0l0,0q0.64,-0.25 1.31,-0.25l0,0l0,0q1.57,0 2.48,0.96l0,0l0,0q0.91,0.96 0.91,2.82l0,0l0,0q0,0.18 -0.01,0.4l0,0l0,0q-0.02,0.21 -0.03,0.38l0,0l-4.73,0l0,0q0.07,0.65 0.6,1.02l0,0l0,0q0.53,0.38 1.43,0.38l0,0l0,0q0.57,0 1.12,-0.1l0,0l0,0q0.56,-0.11 0.91,-0.26l0,0l0.28,1.69l0,0q-0.17,0.09 -0.45,0.17l0,0l0,0q-0.28,0.08 -0.62,0.15l0,0l0,0q-0.35,0.06 -0.74,0.1l0,0l0,0q-0.39,0.04 -0.78,0.04l0,0l0,0q-1,0 -1.73,-0.29l0,0l0,0q-0.74,-0.29 -1.22,-0.81l0,0l0,0q-0.48,-0.51 -0.71,-1.21l0,0l0,0q-0.24,-0.7 -0.24,-1.51zm2.15,-0.8l2.75,0l0,0q-0.01,-0.26 -0.09,-0.51l0,0l0,0q-0.07,-0.26 -0.23,-0.45l0,0l0,0q-0.17,-0.2 -0.41,-0.32l0,0l0,0q-0.25,-0.13 -0.61,-0.13l0,0l0,0q-0.35,0 -0.6,0.12l0,0l0,0q-0.25,0.12 -0.42,0.31l0,0l0,0q-0.17,0.2 -0.26,0.46l0,0l0,0q-0.09,0.26 -0.13,0.52l0,0zm9.19,2.97l0,0l0,0q0.31,0 0.59,-0.01l0,0l0,0q0.28,-0.02 0.45,-0.04l0,0l0,-1.59l0,0q-0.13,-0.02 -0.38,-0.05l0,0l0,0q-0.25,-0.03 -0.46,-0.03l0,0l0,0q-0.29,0 -0.55,0.03l0,0l0,0q-0.26,0.04 -0.46,0.14l0,0l0,0q-0.19,0.1 -0.31,0.26l0,0l0,0q-0.11,0.17 -0.11,0.42l0,0l0,0q0,0.49 0.33,0.68l0,0l0,0q0.33,0.19 0.9,0.19zm-0.16,-6.1l0,0l0,0q0.92,0 1.54,0.21l0,0l0,0q0.61,0.21 0.98,0.6l0,0l0,0q0.37,0.39 0.53,0.95l0,0l0,0q0.15,0.56 0.15,1.25l0,0l0,4.34l0,0q-0.45,0.1 -1.24,0.23l0,0l0,0q-0.8,0.13 -1.94,0.13l0,0l0,0q-0.71,0 -1.29,-0.12l0,0l0,0q-0.58,-0.13 -1,-0.42l0,0l0,0q-0.42,-0.28 -0.65,-0.75l0,0l0,0q-0.22,-0.46 -0.22,-1.13l0,0l0,0q0,-0.64 0.26,-1.09l0,0l0,0q0.26,-0.45 0.69,-0.72l0,0l0,0q0.44,-0.26 1,-0.38l0,0l0,0q0.56,-0.12 1.16,-0.12l0,0l0,0q0.4,0 0.72,0.03l0,0l0,0q0.31,0.04 0.51,0.1l0,0l0,-0.2l0,0q0,-0.53 -0.32,-0.85l0,0l0,0q-0.32,-0.33 -1.12,-0.33l0,0l0,0q-0.53,0 -1.05,0.08l0,0l0,0q-0.52,0.08 -0.9,0.22l0,0l-0.26,-1.68l0,0q0.18,-0.06 0.45,-0.12l0,0l0,0q0.27,-0.06 0.6,-0.11l0,0l0,0q0.32,-0.05 0.68,-0.09l0,0l0,0q0.35,-0.03 0.72,-0.03zm9.88,0.32l-0.35,1.72l0,0q-0.28,-0.07 -0.66,-0.15l0,0l0,0q-0.38,-0.07 -0.81,-0.07l0,0l0,0q-0.2,0 -0.47,0.03l0,0l0,0q-0.27,0.04 -0.41,0.08l0,0l0,5.63l-2.09,0l0,-6.97l0,0q0.56,-0.2 1.32,-0.37l0,0l0,0q0.77,-0.18 1.71,-0.18l0,0l0,0q0.16,0 0.4,0.02l0,0l0,0q0.24,0.02 0.48,0.06l0,0l0,0q0.24,0.03 0.47,0.08l0,0l0,0q0.24,0.05 0.41,0.12l0,0zm0.77,3.56l0,0l0,0q0,-0.8 0.26,-1.51l0,0l0,0q0.26,-0.71 0.75,-1.23l0,0l0,0q0.49,-0.53 1.19,-0.83l0,0l0,0q0.7,-0.31 1.59,-0.31l0,0l0,0q0.59,0 1.08,0.1l0,0l0,0q0.49,0.11 0.95,0.3l0,0l-0.43,1.67l0,0q-0.29,-0.11 -0.64,-0.2l0,0l0,0q-0.35,-0.08 -0.79,-0.08l0,0l0,0q-0.92,0 -1.38,0.57l0,0l0,0q-0.45,0.58 -0.45,1.52l0,0l0,0q0,0.99 0.43,1.54l0,0l0,0q0.42,0.54 1.49,0.54l0,0l0,0q0.37,0 0.81,-0.07l0,0l0,0q0.43,-0.07 0.8,-0.22l0,0l0.29,1.71l0,0q-0.36,0.15 -0.91,0.26l0,0l0,0q-0.55,0.11 -1.2,0.11l0,0l0,0q-1.01,0 -1.74,-0.3l0,0l0,0q-0.73,-0.3 -1.2,-0.82l0,0l0,0q-0.47,-0.51 -0.68,-1.22l0,0l0,0q-0.22,-0.71 -0.22,-1.53zm9.44,3.68l-2.09,0l0,-10.53l2.09,-0.34l0,3.53l0,0q0.21,-0.07 0.53,-0.13l0,0l0,0q0.33,-0.06 0.64,-0.06l0,0l0,0q0.9,0 1.49,0.24l0,0l0,0q0.6,0.25 0.96,0.69l0,0l0,0q0.35,0.45 0.5,1.07l0,0l0,0q0.15,0.61 0.15,1.37l0,0l0,4.16l-2.09,0l0,-3.91l0,0q0,-1.01 -0.26,-1.43l0,0l0,0q-0.26,-0.42 -0.96,-0.42l0,0l0,0q-0.28,0 -0.52,0.05l0,0l0,0q-0.25,0.05 -0.44,0.11l0,0l0,5.6z" id="svg_2"/>
  </g>
  <path fill="#fff" stroke="#000" opacity="NaN" d="m25,66.2" id="svg_3"/>
 </g>
</svg>