<svg data-v-423bf9ae="" xmlns="http://www.w3.org/2000/svg" viewBox="0 0 389 94" class="iconLeft"><!----><!----><!----><g data-v-423bf9ae="" id="3950ae37-86de-4510-ab2c-2762217b23e7" fill="#041F57" transform="matrix(5.424955053999871,0,0,5.424955053999871,104.58209625917749,4.72988419353549)"><path d="M3.07 5.68L3.07 13.05L0.98 13.05L0.98 5.68L3.07 5.68ZM3.26 3.56L3.26 3.56L3.26 3.56Q3.26 4.13 2.89 4.46L2.89 4.46L2.89 4.46Q2.52 4.79 2.02 4.79L2.02 4.79L2.02 4.79Q1.51 4.79 1.14 4.46L1.14 4.46L1.14 4.46Q0.77 4.13 0.77 3.56L0.77 3.56L0.77 3.56Q0.77 2.98 1.14 2.65L1.14 2.65L1.14 2.65Q1.51 2.32 2.02 2.32L2.02 2.32L2.02 2.32Q2.52 2.32 2.89 2.65L2.89 2.65L2.89 2.65Q3.26 2.98 3.26 3.56ZM9.07 13.05L9.07 9.14L9.07 9.14Q9.07 8.13 8.81 7.71L8.81 7.71L8.81 7.71Q8.55 7.29 7.92 7.29L7.92 7.29L7.92 7.29Q7.73 7.29 7.52 7.31L7.52 7.31L7.52 7.31Q7.31 7.34 7.11 7.36L7.11 7.36L7.11 13.05L5.03 13.05L5.03 5.94L5.03 5.94Q5.29 5.87 5.65 5.79L5.65 5.79L5.65 5.79Q6.01 5.71 6.41 5.65L6.41 5.65L6.41 5.65Q6.80 5.59 7.22 5.55L7.22 5.55L7.22 5.55Q7.64 5.52 8.05 5.52L8.05 5.52L8.05 5.52Q8.85 5.52 9.35 5.72L9.35 5.72L9.35 5.72Q9.84 5.92 10.16 6.20L10.16 6.20L10.16 6.20Q10.61 5.88 11.19 5.70L11.19 5.70L11.19 5.70Q11.77 5.52 12.26 5.52L12.26 5.52L12.26 5.52Q13.15 5.52 13.71 5.76L13.71 5.76L13.71 5.76Q14.28 6.01 14.62 6.45L14.62 6.45L14.62 6.45Q14.95 6.90 15.08 7.52L15.08 7.52L15.08 7.52Q15.20 8.13 15.20 8.89L15.20 8.89L15.20 13.05L13.12 13.05L13.12 9.14L13.12 9.14Q13.12 8.13 12.86 7.71L12.86 7.71L12.86 7.71Q12.60 7.29 11.97 7.29L11.97 7.29L11.97 7.29Q11.80 7.29 11.50 7.38L11.50 7.38L11.50 7.38Q11.20 7.46 11.00 7.59L11.00 7.59L11.00 7.59Q11.10 7.91 11.13 8.27L11.13 8.27L11.13 8.27Q11.16 8.62 11.16 9.03L11.16 9.03L11.16 13.05L9.07 13.05ZM16.74 9.42L16.74 9.42L16.74 9.42Q16.74 8.44 17.05 7.71L17.05 7.71L17.05 7.71Q17.35 6.97 17.84 6.48L17.84 6.48L17.84 6.48Q18.33 5.99 18.96 5.74L18.96 5.74L18.96 5.74Q19.60 5.49 20.27 5.49L20.27 5.49L20.27 5.49Q21.84 5.49 22.75 6.45L22.75 6.45L22.75 6.45Q23.66 7.41 23.66 9.27L23.66 9.27L23.66 9.27Q23.66 9.45 23.65 9.67L23.65 9.67L23.65 9.67Q23.63 9.88 23.62 10.05L23.62 10.05L18.89 10.05L18.89 10.05Q18.96 10.70 19.49 11.07L19.49 11.07L19.49 11.07Q20.02 11.45 20.92 11.45L20.92 11.45L20.92 11.45Q21.49 11.45 22.04 11.35L22.04 11.35L22.04 11.35Q22.60 11.24 22.95 11.09L22.95 11.09L23.23 12.78L23.23 12.78Q23.06 12.87 22.78 12.95L22.78 12.95L22.78 12.95Q22.50 13.03 22.16 13.10L22.16 13.10L22.16 13.10Q21.81 13.16 21.42 13.20L21.42 13.20L21.42 13.20Q21.03 13.24 20.64 13.24L20.64 13.24L20.64 13.24Q19.64 13.24 18.91 12.95L18.91 12.95L18.91 12.95Q18.17 12.66 17.69 12.14L17.69 12.14L17.69 12.14Q17.21 11.63 16.98 10.93L16.98 10.93L16.98 10.93Q16.74 10.23 16.74 9.42ZM18.89 8.62L21.64 8.62L21.64 8.62Q21.63 8.36 21.55 8.11L21.55 8.11L21.55 8.11Q21.48 7.85 21.32 7.66L21.32 7.66L21.32 7.66Q21.15 7.46 20.91 7.34L20.91 7.34L20.91 7.34Q20.66 7.21 20.30 7.21L20.30 7.21L20.30 7.21Q19.95 7.21 19.70 7.33L19.70 7.33L19.70 7.33Q19.45 7.45 19.28 7.64L19.28 7.64L19.28 7.64Q19.11 7.84 19.02 8.10L19.02 8.10L19.02 8.10Q18.93 8.36 18.89 8.62L18.89 8.62ZM28.08 11.59L28.08 11.59L28.08 11.59Q28.39 11.59 28.67 11.58L28.67 11.58L28.67 11.58Q28.95 11.56 29.12 11.54L29.12 11.54L29.12 9.95L29.12 9.95Q28.99 9.93 28.74 9.90L28.74 9.90L28.74 9.90Q28.49 9.87 28.28 9.87L28.28 9.87L28.28 9.87Q27.99 9.87 27.73 9.90L27.73 9.90L27.73 9.90Q27.47 9.94 27.27 10.04L27.27 10.04L27.27 10.04Q27.08 10.14 26.96 10.30L26.96 10.30L26.96 10.30Q26.85 10.47 26.85 10.72L26.85 10.72L26.85 10.72Q26.85 11.21 27.18 11.40L27.18 11.40L27.18 11.40Q27.51 11.59 28.08 11.59ZM27.92 5.49L27.92 5.49L27.92 5.49Q28.84 5.49 29.46 5.70L29.46 5.70L29.46 5.70Q30.07 5.91 30.44 6.30L30.44 6.30L30.44 6.30Q30.81 6.69 30.97 7.25L30.97 7.25L30.97 7.25Q31.12 7.81 31.12 8.50L31.12 8.50L31.12 12.84L31.12 12.84Q30.67 12.94 29.88 13.07L29.88 13.07L29.88 13.07Q29.08 13.20 27.94 13.20L27.94 13.20L27.94 13.20Q27.23 13.20 26.65 13.08L26.65 13.08L26.65 13.08Q26.07 12.95 25.65 12.66L25.65 12.66L25.65 12.66Q25.23 12.38 25.00 11.91L25.00 11.91L25.00 11.91Q24.78 11.45 24.78 10.78L24.78 10.78L24.78 10.78Q24.78 10.14 25.04 9.69L25.04 9.69L25.04 9.69Q25.30 9.24 25.73 8.97L25.73 8.97L25.73 8.97Q26.17 8.71 26.73 8.59L26.73 8.59L26.73 8.59Q27.29 8.47 27.89 8.47L27.89 8.47L27.89 8.47Q28.29 8.47 28.61 8.50L28.61 8.50L28.61 8.50Q28.92 8.54 29.12 8.60L29.12 8.60L29.12 8.40L29.12 8.40Q29.12 7.87 28.80 7.55L28.80 7.55L28.80 7.55Q28.48 7.22 27.68 7.22L27.68 7.22L27.68 7.22Q27.15 7.22 26.63 7.30L26.63 7.30L26.63 7.30Q26.11 7.38 25.73 7.52L25.73 7.52L25.47 5.84L25.47 5.84Q25.65 5.78 25.92 5.72L25.92 5.72L25.92 5.72Q26.19 5.66 26.52 5.61L26.52 5.61L26.52 5.61Q26.84 5.56 27.20 5.52L27.20 5.52L27.20 5.52Q27.55 5.49 27.92 5.49ZM37.80 5.81L37.45 7.53L37.45 7.53Q37.17 7.46 36.79 7.38L36.79 7.38L36.79 7.38Q36.41 7.31 35.98 7.31L35.98 7.31L35.98 7.31Q35.78 7.31 35.51 7.34L35.51 7.34L35.51 7.34Q35.24 7.38 35.10 7.42L35.10 7.42L35.10 13.05L33.01 13.05L33.01 6.08L33.01 6.08Q33.57 5.88 34.33 5.71L34.33 5.71L34.33 5.71Q35.10 5.53 36.04 5.53L36.04 5.53L36.04 5.53Q36.20 5.53 36.44 5.55L36.44 5.55L36.44 5.55Q36.68 5.57 36.92 5.61L36.92 5.61L36.92 5.61Q37.16 5.64 37.39 5.69L37.39 5.69L37.39 5.69Q37.63 5.74 37.80 5.81L37.80 5.81ZM38.57 9.37L38.57 9.37L38.57 9.37Q38.57 8.57 38.83 7.86L38.83 7.86L38.83 7.86Q39.09 7.15 39.58 6.63L39.58 6.63L39.58 6.63Q40.07 6.10 40.77 5.80L40.77 5.80L40.77 5.80Q41.47 5.49 42.36 5.49L42.36 5.49L42.36 5.49Q42.95 5.49 43.44 5.59L43.44 5.59L43.44 5.59Q43.93 5.70 44.39 5.89L44.39 5.89L43.96 7.56L43.96 7.56Q43.67 7.45 43.32 7.36L43.32 7.36L43.32 7.36Q42.97 7.28 42.53 7.28L42.53 7.28L42.53 7.28Q41.61 7.28 41.15 7.85L41.15 7.85L41.15 7.85Q40.70 8.43 40.70 9.37L40.70 9.37L40.70 9.37Q40.70 10.36 41.13 10.91L41.13 10.91L41.13 10.91Q41.55 11.45 42.62 11.45L42.62 11.45L42.62 11.45Q42.99 11.45 43.43 11.38L43.43 11.38L43.43 11.38Q43.86 11.31 44.23 11.16L44.23 11.16L44.52 12.87L44.52 12.87Q44.16 13.02 43.61 13.13L43.61 13.13L43.61 13.13Q43.06 13.24 42.41 13.24L42.41 13.24L42.41 13.24Q41.40 13.24 40.67 12.94L40.67 12.94L40.67 12.94Q39.94 12.64 39.47 12.12L39.47 12.12L39.47 12.12Q39.00 11.61 38.79 10.90L38.79 10.90L38.79 10.90Q38.57 10.19 38.57 9.37ZM48.01 13.05L45.92 13.05L45.92 2.52L48.01 2.18L48.01 5.71L48.01 5.71Q48.22 5.64 48.54 5.58L48.54 5.58L48.54 5.58Q48.87 5.52 49.18 5.52L49.18 5.52L49.18 5.52Q50.08 5.52 50.67 5.76L50.67 5.76L50.67 5.76Q51.27 6.01 51.63 6.45L51.63 6.45L51.63 6.45Q51.98 6.90 52.13 7.52L52.13 7.52L52.13 7.52Q52.28 8.13 52.28 8.89L52.28 8.89L52.28 13.05L50.19 13.05L50.19 9.14L50.19 9.14Q50.19 8.13 49.93 7.71L49.93 7.71L49.93 7.71Q49.67 7.29 48.97 7.29L48.97 7.29L48.97 7.29Q48.69 7.29 48.45 7.34L48.45 7.34L48.45 7.34Q48.20 7.39 48.01 7.45L48.01 7.45L48.01 13.05Z"></path></g><defs data-v-423bf9ae=""><linearGradient data-v-423bf9ae="" gradientTransform="rotate(25)" id="3cdbfaa2-0d2a-491d-a3b0-5afd602f0d98" x1="0%" y1="0%" x2="100%" y2="0%"><stop data-v-423bf9ae="" offset="0%" style="stop-color: rgb(0, 21, 214); stop-opacity: 1;"></stop><stop data-v-423bf9ae="" offset="100%" style="stop-color: rgb(9, 137, 251); stop-opacity: 1;"></stop></linearGradient></defs><g data-v-423bf9ae="" id="d528c7be-97c2-4f93-9248-2de1a7499c71" transform="matrix(1.0171451144748265,0,0,1.0171451144748265,-6.4996684740737365,-3.6232228563024904)" stroke="none" fill="url(#3cdbfaa2-0d2a-491d-a3b0-5afd602f0d98)"><path d="M91.473 78.791L75.877 63.193a37.566 37.566 0 0 0 6.728-21.49c0-20.844-16.962-37.799-37.805-37.799C23.956 3.904 7 20.859 7 41.703c0 20.849 16.956 37.803 37.8 37.803 5.744 0 11.189-1.29 16.069-3.593l16.742 16.744a9.538 9.538 0 0 0 6.777 2.79 9.826 9.826 0 0 0 6.979-2.901c3.82-3.821 3.867-9.996.106-13.755zM22.119 41.703c0-12.505 10.176-22.682 22.681-22.682 12.507 0 22.683 10.177 22.683 22.682 0 12.509-10.176 22.685-22.683 22.685-12.505 0-22.681-10.176-22.681-22.685z"></path></g><!----></svg>